<svg id="Instagram" xmlns="http://www.w3.org/2000/svg" width="24.385" height="24.38" viewBox="0 0 24.385 24.38">
  <path id="Path_2532" data-name="Path 2532" d="M12.188,2.2c3.256,0,3.638.015,4.925.073a6.652,6.652,0,0,1,2.264.421,3.783,3.783,0,0,1,1.4.91A3.724,3.724,0,0,1,21.69,5a6.776,6.776,0,0,1,.421,2.264c.058,1.287.073,1.669.073,4.925s-.015,3.638-.073,4.925a6.651,6.651,0,0,1-.421,2.264,3.783,3.783,0,0,1-.91,1.4,3.724,3.724,0,0,1-1.4.91,6.776,6.776,0,0,1-2.264.421c-1.287.058-1.669.073-4.925.073s-3.638-.015-4.925-.073A6.652,6.652,0,0,1,5,21.7a3.783,3.783,0,0,1-1.4-.91,3.724,3.724,0,0,1-.91-1.4,6.776,6.776,0,0,1-.421-2.264c-.058-1.287-.073-1.669-.073-4.925s.015-3.638.073-4.925A6.652,6.652,0,0,1,2.685,5a3.783,3.783,0,0,1,.91-1.4A3.724,3.724,0,0,1,5,2.69a6.776,6.776,0,0,1,2.264-.421C8.549,2.206,8.936,2.2,12.188,2.2m0-2.2C8.878,0,8.462.015,7.161.073A8.934,8.934,0,0,0,4.2.639,5.941,5.941,0,0,0,2.047,2.047,6.046,6.046,0,0,0,.639,4.2,8.939,8.939,0,0,0,.073,7.166C.015,8.462,0,8.878,0,12.188s.015,3.726.073,5.027a8.992,8.992,0,0,0,.566,2.961,5.941,5.941,0,0,0,1.408,2.158A6.046,6.046,0,0,0,4.2,23.742a8.939,8.939,0,0,0,2.961.566c1.3.058,1.713.073,5.027.073s3.726-.015,5.027-.073a8.992,8.992,0,0,0,2.961-.566,5.941,5.941,0,0,0,2.158-1.408,6.046,6.046,0,0,0,1.408-2.158,8.939,8.939,0,0,0,.566-2.961c.058-1.3.073-1.713.073-5.027s-.015-3.726-.073-5.027A8.992,8.992,0,0,0,23.747,4.2a5.941,5.941,0,0,0-1.408-2.158A6.046,6.046,0,0,0,20.181.634,8.939,8.939,0,0,0,17.22.068C15.913.015,15.5,0,12.188,0Z" transform="translate(0 0)"/>
  <path id="Path_2533" data-name="Path 2533" d="M6.261,0a6.261,6.261,0,1,0,6.261,6.261A6.262,6.262,0,0,0,6.261,0Zm0,10.32a4.064,4.064,0,1,1,4.064-4.064A4.064,4.064,0,0,1,6.261,10.32Z" transform="translate(5.927 5.932)"/>
  <circle id="Ellipse_31" data-name="Ellipse 31" cx="1.461" cy="1.461" r="1.461" transform="translate(17.234 4.219)"/>
</svg>
